<svg width="90" height="77" viewBox="0 0 90 77" fill="none" xmlns="http://www.w3.org/2000/svg">
<path d="M4.95665 12.3711C18.7115 18.1048 13.9307 28.438 13.9307 28.438C2.32862 29.35 4.95665 12.3711 4.95665 12.3711Z" fill="#8AC054"/>
<path d="M24.3847 17.2178C27.6525 34.1058 14.6665 36.1078 14.6665 36.1078C6.38157 25.5328 24.3847 17.2178 24.3847 17.2178Z" fill="#8AC054"/>
<path d="M0 33.4062C16.7646 32.025 17.33 44.86 17.33 44.86C6.17031 51.791 0 33.4062 0 33.4062Z" fill="#8AC054"/>
<path d="M24.0772 34.5342C35.2124 48.6021 24.1486 56.6893 24.1486 56.6893C11.3986 50.876 24.0772 34.5342 24.0772 34.5342Z" fill="#8AC054"/>
<path d="M3.86644 53.2762C23.0941 45.8895 28.1687 60.7864 28.1687 60.7864C17.4345 72.7676 3.86644 53.2762 3.86644 53.2762Z" fill="#8AC054"/>
<path d="M31.0247 49.0005C46.9956 57.1289 40.3255 69.0849 40.3255 69.0849C26.3289 69.1232 31.0247 49.0005 31.0247 49.0005Z" fill="#8AC054"/>
<path d="M62.1262 76.7242C62.0246 76.7242 61.9202 76.716 61.8132 76.6993C40.5617 73.1322 25.7908 64.7239 17.9124 51.7103C15.3944 47.5473 13.6012 42.9174 12.5878 37.9472C11.7804 33.9901 11.4619 29.8079 11.6403 25.5213C11.9451 18.2278 13.5764 13.167 13.6449 12.9554C13.9662 11.9696 15.0262 11.4341 16.0093 11.7553C16.9923 12.0766 17.5305 13.1339 17.2092 14.1169C17.1927 14.1663 15.6496 18.9939 15.3805 25.8095C15.1388 32.0238 15.9408 41.2313 21.139 49.8016C28.4324 61.821 42.3275 69.6281 62.4338 73.0001C63.4554 73.173 64.1445 74.1396 63.9746 75.1585C63.8206 76.0762 63.0271 76.7242 62.1262 76.7242Z" fill="#79AA41"/>
<path d="M75.3181 36.1078C77.4599 33.3728 77.8443 30.7913 77.2374 28.4656C87.4718 28.158 85.028 12.3711 85.028 12.3711C76.6499 15.8612 75.1478 21.0622 75.255 24.5936C71.8086 20.0845 65.5998 17.2178 65.5998 17.2178C62.3319 34.106 75.3181 36.1078 75.3181 36.1078Z" fill="#9ED36A"/>
<path d="M72.6544 44.8599C74.4253 45.961 76.0705 46.4225 77.5836 46.4225C85.6156 46.4225 89.9818 33.4062 89.9818 33.4062C89.1279 33.3346 88.3122 33.3018 87.538 33.3018C73.1625 33.3016 72.6544 44.8599 72.6544 44.8599Z" fill="#9ED36A"/>
<path d="M70.7596 52.1094C73.9889 44.9504 65.9075 34.5347 65.9075 34.5347C56.7959 46.0463 62.5492 53.5537 64.9408 55.9016C62.6532 58.3264 61.816 60.7868 61.816 60.7868C64.3394 63.6016 67.0195 64.6807 69.6448 64.6807C78.1822 64.6807 86.1211 53.2764 86.1211 53.2764C82.2985 51.8101 79.0362 51.2222 76.2628 51.2222C74.1594 51.2223 72.3331 51.5601 70.7596 52.1094Z" fill="#9ED36A"/>
<path d="M49.1702 69.0851C63.1502 67.8988 56.6999 48.2207 56.6999 48.2207C41.4649 57.7328 49.1702 69.0851 49.1702 69.0851Z" fill="#9ED36A"/>
<path d="M27.8585 76.7245C26.9606 76.7245 26.1643 76.0764 26.0105 75.1593C25.8402 74.1405 26.5295 73.1738 27.5511 73.0009C47.6767 69.6233 61.5799 61.8079 68.865 49.7694C74.0743 41.1632 74.8569 31.92 74.5989 25.6784C74.316 18.8956 72.792 14.167 72.7755 14.1202C72.4542 13.1371 72.9924 12.0771 73.9754 11.7558C74.9585 11.4346 76.0185 11.9701 76.3396 12.9559C76.4083 13.1675 78.0395 18.2282 78.3442 25.5218C78.5228 29.8084 78.2041 33.9906 77.3969 37.9476C76.3834 42.9177 74.5903 47.5506 72.0723 51.7108C64.1942 64.7244 49.4231 73.1327 28.1715 76.6998C28.0643 76.7165 27.9601 76.7245 27.8585 76.7245Z" fill="#8AC054"/>
<path d="M75.0189 14.8836C81.1289 5.64041 65.7758 0 65.7758 0C64.2077 14.1011 75.0189 14.8836 75.0189 14.8836Z" fill="#9ED36A"/>
<path d="M24.209 0.000488281C25.777 14.1014 14.9658 14.8841 14.9658 14.8841C8.85577 5.64073 24.209 0.000488281 24.209 0.000488281Z" fill="#8AC054"/>
</svg>
